<?xml version="1.0" encoding="UTF-8" standalone="no"?>
<!-- Created with Inkscape (http://www.inkscape.org/) -->

<svg
   width="19.828564mm"
   height="4.6383476mm"
   viewBox="0 0 19.828564 4.6383476"
   version="1.1"
   id="svg5"
   xml:space="preserve"
   inkscape:version="1.2.2 (b0a8486541, 2022-12-01)"
   sodipodi:docname="drawing.svg"
   xmlns:inkscape="http://www.inkscape.org/namespaces/inkscape"
   xmlns:sodipodi="http://sodipodi.sourceforge.net/DTD/sodipodi-0.dtd"
   xmlns="http://www.w3.org/2000/svg"
   xmlns:svg="http://www.w3.org/2000/svg"><sodipodi:namedview
     id="namedview7"
     pagecolor="#ffffff"
     bordercolor="#000000"
     borderopacity="0.25"
     inkscape:showpageshadow="2"
     inkscape:pageopacity="0.0"
     inkscape:pagecheckerboard="0"
     inkscape:deskcolor="#d1d1d1"
     inkscape:document-units="mm"
     showgrid="false"
     inkscape:zoom="6.2074635"
     inkscape:cx="220.86316"
     inkscape:cy="171.32602"
     inkscape:window-width="1808"
     inkscape:window-height="948"
     inkscape:window-x="397"
     inkscape:window-y="1155"
     inkscape:window-maximized="0"
     inkscape:current-layer="layer1" /><defs
     id="defs2" /><g
     inkscape:label="Layer 1"
     inkscape:groupmode="layer"
     id="layer1"
     transform="translate(-49.148275,-41.128638)"><g
       id="g7718"
       inkscape:export-filename="Developments/Learn/zal-todos/public/g7718.svg"
       inkscape:export-xdpi="96"
       inkscape:export-ydpi="96"><rect
         style="fill:#ffffff;fill-opacity:1;stroke-width:0.2;stroke-dasharray:none"
         id="rect7661"
         width="3.7031469"
         height="3.2339025"
         x="49.696838"
         y="41.771149" /><path
         style="fill:#6366f1;fill-opacity:1;stroke-width:0.0108891"
         d="m 50.22325,45.749634 c -0.297675,-0.04632 -0.518327,-0.148468 -0.702626,-0.325283 -0.197455,-0.189435 -0.322136,-0.454917 -0.360731,-0.768096 -0.01549,-0.12573 -0.01549,-2.292222 0,-2.417952 0.0631,-0.512034 0.350015,-0.8808 0.804387,-1.033868 0.03754,-0.01265 0.115583,-0.03373 0.173427,-0.04686 0.104037,-0.0236 0.117608,-0.0239 1.259415,-0.02759 1.228316,-0.004 1.28944,-0.002 1.482992,0.04792 0.430633,0.111044 0.744248,0.42058 0.853044,0.84195 0.05321,0.206073 0.05399,0.226856 0.05399,1.427418 0,1.200561 -7.87e-4,1.221344 -0.05399,1.427417 -0.124556,0.482408 -0.496578,0.798954 -1.029344,0.875847 -0.155711,0.02247 -2.335423,0.02168 -2.480564,-9.19e-4 z m 0.182964,-1.066175 c 0.02355,-0.0052 0.11268,-0.08678 0.319303,-0.292296 0.15765,-0.156801 0.293628,-0.298326 0.302173,-0.314498 0.0085,-0.01617 0.01552,-0.05292 0.0155,-0.08167 -8.2e-5,-0.09793 -0.06871,-0.166483 -0.166734,-0.166559 -0.02884,-2.2e-5 -0.06314,0.0054 -0.07622,0.01201 -0.01308,0.0066 -0.119516,0.107212 -0.236521,0.223525 l -0.212736,0.211478 -0.03227,-0.03394 c -0.04497,-0.04729 -0.08288,-0.06466 -0.141159,-0.06466 -0.118706,0 -0.199817,0.10283 -0.169511,0.214899 0.0083,0.03065 0.04239,0.07218 0.135102,0.164571 0.121072,0.120644 0.162962,0.147557 0.214079,0.137542 0.009,-0.0018 0.03103,-0.0064 0.049,-0.0104 z m 2.396553,-0.170424 c 0.06078,-0.0153 0.119408,-0.07916 0.129947,-0.141536 0.0056,-0.0332 0.0015,-0.05435 -0.01828,-0.09421 -0.03339,-0.06728 -0.07962,-0.09698 -0.16473,-0.105806 -0.03722,-0.0039 -0.334727,-0.0055 -0.661128,-0.0035 -0.57577,0.0034 -0.59459,0.0041 -0.63153,0.02584 -0.05691,0.03343 -0.08715,0.08499 -0.08715,0.148565 0,0.08528 0.0374,0.139036 0.116337,0.167188 0.05488,0.01957 1.240196,0.02273 1.316531,0.0035 z M 50.419116,43.05461 c 0.0393,-0.01481 0.585752,-0.558809 0.607622,-0.604897 0.06542,-0.137872 -0.05614,-0.282849 -0.203855,-0.243116 -0.03916,0.01053 -0.08008,0.04586 -0.261113,0.225434 l -0.214672,0.212942 -0.04743,-0.04372 c -0.05418,-0.04994 -0.106093,-0.06439 -0.169767,-0.04725 -0.05271,0.01419 -0.106802,0.068 -0.123124,0.122482 -0.02188,0.07304 0.0011,0.119241 0.120269,0.241312 0.05772,0.05914 0.119644,0.116701 0.137611,0.127906 0.0363,0.02264 0.107166,0.02672 0.154461,0.0089 z m 2.413889,-0.177689 c 0.07221,-0.03017 0.115566,-0.122811 0.09435,-0.201595 -0.014,-0.05199 -0.08258,-0.117087 -0.133057,-0.1263 -0.01982,-0.0036 -0.323565,-0.0051 -0.674985,-0.0033 -0.628693,0.0032 -0.639439,0.0036 -0.66968,0.02602 -0.05373,0.03983 -0.07974,0.08891 -0.07966,0.150334 8.3e-5,0.0666 0.02455,0.10888 0.08373,0.144706 l 0.04142,0.02508 0.650973,4.2e-5 c 0.528679,4.1e-5 0.657725,-0.0028 0.686908,-0.01496 z"
         id="path179"
         inkscape:export-filename="path179.svg"
         inkscape:export-xdpi="96"
         inkscape:export-ydpi="96" /></g><text
       xml:space="preserve"
       style="font-style:normal;font-variant:normal;font-weight:800;font-stretch:normal;font-size:3.175px;font-family:Poppins;-inkscape-font-specification:'Poppins Ultra-Bold';text-align:end;text-anchor:end;fill:#6366f1;fill-opacity:1;stroke-width:0.2;stroke-dasharray:none"
       x="69.122887"
       y="44.608276"
       id="text7550"><tspan
         sodipodi:role="line"
         id="tspan7548"
         style="font-style:normal;font-variant:normal;font-weight:600;font-stretch:normal;font-family:Poppins;-inkscape-font-specification:'Poppins Semi-Bold';stroke-width:0.2"
         x="69.122887"
         y="44.608276">zal todos</tspan></text></g></svg>
